<svg width="125" height="47" viewBox="0 0 125 47" fill="none" xmlns="http://www.w3.org/2000/svg">
<path d="M6.05853 47C3.52785 47 1.44907 45.0115 1.35869 42.4808L0.00296416 4.51923C-0.0874174 2.07885 1.90098 0 4.34128 0H79.5388C82.0694 0 85.8655 0.903863 88.0346 2.07886L123.103 20.3365C125.272 21.5115 125.633 23.8616 123.916 25.5789L105.749 43.8365C104.032 45.5538 100.507 47 98.067 47H6.05853ZM25.4906 32.2673C25.4906 34.7981 27.5693 36.7865 30.0097 36.7865H62.547C65.0777 36.7865 67.0661 34.7077 67.0661 32.2673V13.0154C67.0661 10.4846 64.9873 8.49618 62.547 8.49618H30.0097C27.479 8.49618 25.4906 10.575 25.4906 13.0154V32.2673Z" fill="currentColor"/>
</svg>
