<svg width="167" height="203" viewBox="0 0 167 203" fill="none" xmlns="http://www.w3.org/2000/svg">
<path d="M5.32556 156.183C3.44628 153.756 1.89864 149.344 1.78809 146.256L0.793176 118.793C0.68263 115.815 3.11464 113.279 6.09938 113.279H39.9264C43.0217 113.279 47.2225 111.514 49.3228 109.418L154.231 4.75021C156.331 2.65464 160.09 0.889954 162.411 0.889954C164.733 0.889954 166.723 3.42669 166.723 6.40461V30.0073C166.723 33.0955 165.728 37.8381 164.512 40.5955L127.037 123.867C125.821 126.624 122.283 128.94 119.298 128.94H71.432C68.3367 128.94 65.2414 131.367 64.3571 134.234L44.5694 199.748C43.685 202.616 41.4741 203.057 39.5948 200.631L5.32556 156.183Z" fill="currentColor"/>
</svg>

