<svg width="37" height="29" viewBox="0 0 37 29" fill="none" xmlns="http://www.w3.org/2000/svg">
<path d="M27 0C24.8 0 23 1.40001 23 3.20001C23 5.00001 21.4 7.20001 19.4 8.10001L17.6 8.89999C15.6 9.79999 14 9.29999 14 7.79999C14 6.29999 12.2 5 10 5H4C1.8 5 0 6.8 0 9V25C0 27.2 1.8 29 4 29H10C12.2 29 14 27.2 14 25V24.6C14 22.4 15.6 19.8 17.6 18.9L19.4 18.1C21.4 17.2 23 18.2 23 20.4V21.1C23 23.3 24.8 25.1 27 25.1H33C35.2 25.1 37 23.3 37 21.1V4.10001C37 1.90001 35.2 0.100006 33 0.100006H27V0Z" fill="currentColor"/>
</svg>
