<svg width="115" height="91" viewBox="0 0 115 91" fill="none" xmlns="http://www.w3.org/2000/svg">
<path d="M1.12915 35.5466C-0.590899 33.73 -0.319316 31.0958 1.76285 29.6425L42.863 0.939318C44.9451 -0.514007 48.1136 -0.241509 49.9242 1.48432L66.9436 17.3801C68.7542 19.1059 70.0216 22.4667 69.75 25.01L68.8448 32.64C68.5732 35.0925 70.2932 37.4541 72.828 37.9083L91.8391 40.9966C94.2834 41.3599 96.5466 39.7249 96.9087 37.1816L97.814 30.6417C98.1761 28.1892 100.349 26.4633 102.612 26.8267C104.875 27.19 107.953 29.1883 109.221 31.3683L114.29 39.5433C115.558 41.6324 115.105 44.6299 113.113 46.1741L104.875 52.6232C102.884 54.1674 99.7151 56.7107 97.814 58.2548L58.4339 89.9555C56.5328 91.4997 53.5454 91.318 51.8253 89.5013L1.12915 35.5466ZM27.7446 29.2792C25.8435 30.9142 25.5719 33.73 27.2015 35.6375L50.2863 63.069C51.9159 64.9765 54.7222 65.249 56.6234 63.614L69.2974 52.8957C71.1985 51.2607 71.4701 48.4449 69.8406 46.5374L46.8462 19.1059C45.2167 17.1984 42.4103 16.9259 40.5092 18.5609L27.7446 29.2792Z" fill="currentColor"/>
</svg>
