<svg width="41" height="35" viewBox="0 0 41 35" fill="none" xmlns="http://www.w3.org/2000/svg">
<path d="M39.6493 21.9783C40.5493 23.9783 39.7493 26.3783 37.7493 27.2783L22.3493 34.5784C20.3493 35.4784 17.9493 34.6783 17.0493 32.6783L14.0493 26.3784C13.1493 24.3784 13.9494 21.9784 15.9494 21.0784L31.3493 13.7783C33.3493 12.8783 35.7493 13.6783 36.6493 15.6783L39.6493 21.9783Z" fill="currentColor"/>
<path d="M7.94933 21.4784C7.04933 23.4784 4.64933 24.3784 2.64933 23.4784L2.34932 23.3784C0.349323 22.4784 -0.550677 20.0784 0.349323 18.0784L4.54932 8.97835C5.44932 6.97835 7.84932 6.07835 9.84932 6.97835L10.1493 7.07836C12.1493 7.97836 13.0493 10.3784 12.1493 12.3784L7.94933 21.4784Z" fill="currentColor"/>
<path d="M28.6493 5.37836C29.8493 7.17836 29.5493 9.57834 27.8493 10.5783C26.1493 11.5783 23.9493 10.9783 22.7493 9.07834L20.5493 5.67835C19.3493 3.87835 19.6493 1.47833 21.3493 0.478333C22.9493 -0.521667 25.2493 0.0783329 26.4493 1.97833L28.6493 5.37836Z" fill="currentColor"/>
</svg>
