<svg width="138" height="184" viewBox="0 0 138 184" fill="none" xmlns="http://www.w3.org/2000/svg">
<path d="M27.0846 116.92C30.8581 120.878 30.355 127.309 26.33 130.772L17.022 138.934C12.997 142.644 6.45639 142.15 2.93448 138.192C-0.838985 134.235 -0.335887 127.804 3.68915 124.341L12.9971 116.178C17.0221 112.468 23.5627 112.715 27.0846 116.92Z" fill="currentColor"/>
<path d="M119.665 183.005C116.569 183.005 113.474 180.579 112.59 177.713L98.4411 127.328C97.6674 124.462 95.4566 120.052 93.5774 117.627L64.7269 80.2519C62.8477 77.8264 62.0739 73.5267 62.9582 70.6602L82.6341 5.39246C83.5184 2.52598 86.724 0.100464 89.7086 0.100464H131.492C134.587 0.100464 137.019 2.6362 137.019 5.61294V177.602C137.019 180.689 134.477 183.115 131.492 183.115H119.665V183.005Z" fill="currentColor"/>
</svg>
