<svg width="171" height="203" viewBox="0 0 171 203" fill="none" xmlns="http://www.w3.org/2000/svg">
<path d="M170.813 99.5598C170.813 103.855 167.958 107.368 164.469 107.368H161.297C157.807 107.368 154.952 103.855 154.952 99.5598V85.8947C154.952 81.6 157.807 78.0861 161.297 78.0861H164.469C167.958 78.0861 170.813 81.6 170.813 85.8947V99.5598Z" fill="currentColor"/>
<path d="M120.937 199.424C119.801 201.864 116.772 202.962 114.247 201.864L99.3529 195.154C96.8284 194.055 95.6924 191.127 96.8284 188.687L101.12 179.78C102.256 177.34 105.285 176.242 107.81 177.34L122.704 184.051C125.229 185.149 126.365 188.077 125.229 190.517L120.937 199.424Z" fill="currentColor"/>
<path d="M0.221774 95.4619C0.221774 92.3631 1.21977 87.6042 2.43955 84.8373L39.2546 2.82874C40.4744 0.0619145 43.5793 -0.823455 46.1297 0.836638L93.9227 31.825C96.4732 33.4851 97.1385 36.916 95.4752 39.4615L3.10489 177.692C1.44156 180.237 0 179.795 0 176.806V95.4619H0.221774Z" fill="currentColor"/>
</svg>
