<svg width="154" height="119" viewBox="0 0 154 119" fill="none" xmlns="http://www.w3.org/2000/svg">
<path d="M154 10.1364C154 15.1693 149.946 19.2871 144.99 19.2871H133.728C128.772 19.2871 124.718 15.1693 124.718 10.1364C124.718 5.10348 128.772 0.985657 133.728 0.985657H144.99C149.946 0.985657 154 5.10348 154 10.1364Z" fill="currentColor"/>
<path d="M18.654 118.005C15.5713 118.005 10.9473 116.793 8.4151 115.251L5.00216 113.268C2.35988 111.726 0.268066 108.091 0.268066 105.007V82.0949C0.268066 79.0107 2.24977 75.0452 4.56177 73.1726L30.6543 52.2436C32.9663 50.371 36.9297 47.2867 39.2417 45.304L84.1606 9.28407C86.4726 7.41147 88.4543 8.2927 88.5644 11.377L89.3351 65.7924C89.3351 68.7665 88.6745 73.7233 87.7937 76.5873L76.7842 112.828C75.9034 115.691 72.7107 118.115 69.628 118.115H18.654V118.005Z" fill="currentColor"/>
</svg>
